<?xml version="1.0" encoding="UTF-8" standalone="no"?>
<!DOCTYPE svg PUBLIC "-//W3C//DTD SVG 1.1//EN" "http://www.w3.org/Graphics/SVG/1.1/DTD/svg11.dtd">
<svg version="1.1" xmlns="http://www.w3.org/2000/svg" xmlns:dc="http://purl.org/dc/elements/1.1/" xmlns:xl="http://www.w3.org/1999/xlink" viewBox="0 -1 1266 493" width="1266" height="493">
  <defs/>
  <metadata> Produced by OmniGraffle 7.24.5\n2025-05-21 09:24:44 +0000</metadata>
  <g id="Structure_of_document_repo" stroke-dasharray="none" stroke-opacity="1" stroke="none" fill-opacity="1" fill="none">
    <title>Structure_of_document_repo</title>
    <g id="Structure_of_document_repo_Layer_1">
      <title>Layer 1</title>
      <g id="Graphic_123">
        <rect x="418.5" y="-.5" width="369" height="60" fill="#d5e8d4"/>
        <rect x="418.5" y="-.5" width="369" height="60" stroke="#82b366" stroke-linecap="butt" stroke-linejoin="round" stroke-width="1"/>
      </g>
      <g id="Group_121">
        <g id="Graphic_122">
          <title>Text</title>
          <text transform="translate(477.92676 15.59961)" fill="black">
            <tspan font-family="Helvetica" font-size="20" fill="black" x="0" y="19" xml:space="preserve">Reference Design Guideline</tspan>
          </text>
        </g>
      </g>
      <g id="Graphic_120">
        <path d="M 727.5 304.5 L 727.5 273 L 914 273 L 914 245.49" stroke="black" stroke-linecap="butt" stroke-linejoin="round" stroke-width="1"/>
      </g>
      <g id="Graphic_119">
        <path d="M 914 232.49 L 917.82 238.99 L 914 245.49 L 910.18 238.99 Z" fill="black"/>
        <path d="M 914 232.49 L 917.82 238.99 L 914 245.49 L 910.18 238.99 Z" stroke="black" stroke-linecap="butt" stroke-linejoin="round" stroke-width="1"/>
      </g>
      <g id="Graphic_118">
        <rect x="667.5" y="304.5" width="120" height="60" fill="#f5f5f5"/>
        <rect x="667.5" y="304.5" width="120" height="60" stroke="#666" stroke-linecap="butt" stroke-linejoin="round" stroke-width="1"/>
        <text transform="translate(672.5 315.5)" fill="#333">
          <tspan font-family="Helvetica" font-size="16" fill="#333" x="7.863281" y="15" xml:space="preserve">Development </tspan>
          <tspan font-family="Helvetica" font-size="16" fill="#333" x="25.214844" y="34" xml:space="preserve">Platform</tspan>
        </text>
      </g>
      <g id="Group_116">
        <g id="Graphic_117">
          <title>Text</title>
        </g>
      </g>
      <g id="Graphic_115">
        <path d="M 991.5 304.5 L 991.5 273 L 914 273 L 914 245.49" stroke="black" stroke-linecap="butt" stroke-linejoin="round" stroke-width="1"/>
      </g>
      <g id="Graphic_114">
        <path d="M 914 232.49 L 917.82 238.99 L 914 245.49 L 910.18 238.99 Z" fill="black"/>
        <path d="M 914 232.49 L 917.82 238.99 L 914 245.49 L 910.18 238.99 Z" stroke="black" stroke-linecap="butt" stroke-linejoin="round" stroke-width="1"/>
      </g>
      <g id="Graphic_113">
        <rect x="931.5" y="304.5" width="120" height="60" fill="#f5f5f5"/>
        <rect x="931.5" y="304.5" width="120" height="60" stroke="#666" stroke-linecap="butt" stroke-linejoin="round" stroke-width="1"/>
        <text transform="translate(936.5 325)" fill="#333">
          <tspan font-family="Helvetica" font-size="16" fill="#333" x="7.4140625" y="15" xml:space="preserve">Data Pipeline</tspan>
        </text>
      </g>
      <g id="Group_111">
        <g id="Graphic_112">
          <title>Text</title>
        </g>
      </g>
      <g id="Graphic_110">
        <path d="M 1123.5 304.5 L 1123.5 273 L 914 273 L 914 245.49" stroke="black" stroke-linecap="butt" stroke-linejoin="round" stroke-width="1"/>
      </g>
      <g id="Graphic_109">
        <path d="M 914 232.49 L 917.82 238.99 L 914 245.49 L 910.18 238.99 Z" fill="black"/>
        <path d="M 914 232.49 L 917.82 238.99 L 914 245.49 L 910.18 238.99 Z" stroke="black" stroke-linecap="butt" stroke-linejoin="round" stroke-width="1"/>
      </g>
      <g id="Graphic_108">
        <rect x="1063.5" y="304.5" width="120" height="60" fill="#f5f5f5"/>
        <rect x="1063.5" y="304.5" width="120" height="60" stroke="#666" stroke-linecap="butt" stroke-linejoin="round" stroke-width="1"/>
        <text transform="translate(1068.5 315.5)" fill="#333">
          <tspan font-family="Helvetica" font-size="16" fill="#333" x="20.3125" y="15" xml:space="preserve">Container </tspan>
          <tspan font-family="Helvetica" font-size="16" fill="#333" x="32.765625" y="34" xml:space="preserve">Image</tspan>
        </text>
      </g>
      <g id="Group_106">
        <g id="Graphic_107">
          <title>Text</title>
        </g>
      </g>
      <g id="Graphic_105">
        <path d="M 859.5 304.5 L 859.5 273 L 914 273 L 914 245.49" stroke="black" stroke-linecap="butt" stroke-linejoin="round" stroke-width="1"/>
      </g>
      <g id="Graphic_104">
        <path d="M 914 232.49 L 917.82 238.99 L 914 245.49 L 910.18 238.99 Z" fill="black"/>
        <path d="M 914 232.49 L 917.82 238.99 L 914 245.49 L 910.18 238.99 Z" stroke="black" stroke-linecap="butt" stroke-linejoin="round" stroke-width="1"/>
      </g>
      <g id="Graphic_103">
        <rect x="799.5" y="304.5" width="120" height="60" fill="#f5f5f5"/>
        <rect x="799.5" y="304.5" width="120" height="60" stroke="#666" stroke-linecap="butt" stroke-linejoin="round" stroke-width="1"/>
        <text transform="translate(804.5 325)" fill="#333">
          <tspan font-family="Helvetica" font-size="16" fill="#333" x="6.671875" y="15" xml:space="preserve">Software Tool</tspan>
        </text>
      </g>
      <g id="Group_101">
        <g id="Graphic_102">
          <title>Text</title>
        </g>
      </g>
      <g id="Graphic_100">
        <path d="M 331 171.5 L 331 120.5 L 603 120.5 L 603 73.49" stroke="black" stroke-linecap="butt" stroke-linejoin="round" stroke-width="1"/>
      </g>
      <g id="Graphic_99">
        <path d="M 603 60.49 L 606.82 66.99 L 603 73.49 L 599.18 66.99 Z" fill="black"/>
        <path d="M 603 60.49 L 606.82 66.99 L 603 73.49 L 599.18 66.99 Z" stroke="black" stroke-linecap="butt" stroke-linejoin="round" stroke-width="1"/>
      </g>
      <g id="Graphic_98">
        <path d="M 914 171.5 L 914 120.5 L 603 120.5 L 603 73.49" stroke="black" stroke-linecap="butt" stroke-linejoin="round" stroke-width="1"/>
      </g>
      <g id="Graphic_97">
        <path d="M 603 60.49 L 606.82 66.99 L 603 73.49 L 599.18 66.99 Z" fill="black"/>
        <path d="M 603 60.49 L 606.82 66.99 L 603 73.49 L 599.18 66.99 Z" stroke="black" stroke-linecap="butt" stroke-linejoin="round" stroke-width="1"/>
      </g>
      <g id="Graphic_96">
        <rect x="854" y="170.17969" width="120" height="60" fill="#f5f5f5"/>
        <rect x="854" y="170.17969" width="120" height="60" stroke="#666" stroke-linecap="butt" stroke-linejoin="round" stroke-width="1"/>
        <text transform="translate(859 181.17969)" fill="#333">
          <tspan font-family="Helvetica" font-size="16" fill="#333" x="28.328125" y="15" xml:space="preserve">System </tspan>
          <tspan font-family="Helvetica" font-size="16" fill="#333" x="7.4140625" y="34" xml:space="preserve">Configuration</tspan>
        </text>
      </g>
      <g id="Group_94">
        <g id="Graphic_95">
          <title>Text</title>
        </g>
      </g>
      <g id="Graphic_93"/>
      <g id="Group_91">
        <g id="Graphic_92">
          <title>Text</title>
          <text transform="translate(979 188)" fill="black">
            <tspan font-family="Helvetica" font-size="16" fill="black" x="0" y="15" xml:space="preserve">Describe components...</tspan>
          </text>
        </g>
      </g>
      <g id="Graphic_90">
        <rect x="271" y="171.5" width="120" height="60" fill="#f5f5f5"/>
        <rect x="271" y="171.5" width="120" height="60" stroke="#666" stroke-linecap="butt" stroke-linejoin="round" stroke-width="1"/>
      </g>
      <g id="Group_88">
        <g id="Graphic_89">
          <title>Text</title>
          <text transform="translate(283.8672 190.67969)" fill="#333">
            <tspan font-family="Helvetica" font-size="16" fill="#333" x="0" y="15" xml:space="preserve">Start Guide...</tspan>
          </text>
        </g>
      </g>
      <g id="Graphic_87">
        <path d="M 191.5 304.5 L 191.5 273 L 331 273 L 331 245.49" stroke="black" stroke-linecap="butt" stroke-linejoin="round" stroke-width="1"/>
      </g>
      <g id="Graphic_86">
        <path d="M 331 232.49 L 334.82 238.99 L 331 245.49 L 327.18 238.99 Z" fill="black"/>
        <path d="M 331 232.49 L 334.82 238.99 L 331 245.49 L 327.18 238.99 Z" stroke="black" stroke-linecap="butt" stroke-linejoin="round" stroke-width="1"/>
      </g>
      <g id="Graphic_85">
        <rect x="131.5" y="304.5" width="120" height="60" fill="#f5f5f5"/>
        <rect x="131.5" y="304.5" width="120" height="60" stroke="#666" stroke-linecap="butt" stroke-linejoin="round" stroke-width="1"/>
        <text transform="translate(136.5 325.276)" fill="black">
          <tspan font-family="Helvetica Neue" font-size="16" fill="black" x="16.48" y="15" xml:space="preserve">Installation</tspan>
        </text>
      </g>
      <g id="Graphic_82">
        <path d="M 330.5 304.5 L 330.5 273 L 330.83 245.49" stroke="black" stroke-linecap="butt" stroke-linejoin="round" stroke-width="1"/>
      </g>
      <g id="Graphic_81">
        <path d="M 330.99 232.49 L 334.73 239.03 L 330.83 245.49 L 327.09 238.94 Z" fill="black"/>
        <path d="M 330.99 232.49 L 334.73 239.03 L 330.83 245.49 L 327.09 238.94 Z" stroke="black" stroke-linecap="butt" stroke-linejoin="round" stroke-width="1"/>
      </g>
      <g id="Graphic_80">
        <rect x="270.5" y="304.5" width="120" height="60" fill="#f5f5f5"/>
        <rect x="270.5" y="304.5" width="120" height="60" stroke="#666" stroke-linecap="butt" stroke-linejoin="round" stroke-width="1"/>
        <text transform="translate(275.5 316.052)" fill="black">
          <tspan font-family="Helvetica Neue" font-size="16" fill="black" x="28.616" y="15" xml:space="preserve">Launch </tspan>
          <tspan font-family="Helvetica Neue" font-size="16" fill="black" x="21.08" y="33.448" xml:space="preserve">Autoware</tspan>
        </text>
      </g>
      <g id="Graphic_77">
        <path d="M 463.5 303.48 L 463.5 273 L 331 273 L 331 245.49" stroke="black" stroke-linecap="butt" stroke-linejoin="round" stroke-width="1"/>
      </g>
      <g id="Graphic_76">
        <path d="M 331 232.49 L 334.82 238.99 L 331 245.49 L 327.18 238.99 Z" fill="black"/>
        <path d="M 331 232.49 L 334.82 238.99 L 331 245.49 L 327.18 238.99 Z" stroke="black" stroke-linecap="butt" stroke-linejoin="round" stroke-width="1"/>
      </g>
      <g id="Graphic_75">
        <rect x="409.5" y="304.5" width="120" height="60" fill="#f5f5f5"/>
        <rect x="409.5" y="304.5" width="120" height="60" stroke="#666" stroke-linecap="butt" stroke-linejoin="round" stroke-width="1"/>
        <text transform="translate(414.5 316.052)" fill="black">
          <tspan font-family="Helvetica Neue" font-size="16" fill="black" x="32.176" y="15" xml:space="preserve">Run in </tspan>
          <tspan font-family="Helvetica Neue" font-size="16" fill="black" x="20.92" y="33.448" xml:space="preserve">Simluator</tspan>
        </text>
      </g>
      <g id="Graphic_72"/>
      <g id="Group_70">
        <g id="Graphic_71">
          <title>Text</title>
          <text transform="translate(2 186.67969)" fill="black">
            <tspan font-family="Helvetica" font-size="16" fill="black" x="0" y="15" xml:space="preserve">Describe how to install, set up,...</tspan>
          </text>
        </g>
      </g>
      <g id="Graphic_22">
        <line x1="306" y1="461.5" x2="262.49" y2="461.5" stroke="black" stroke-linecap="butt" stroke-linejoin="round" stroke-width="1"/>
      </g>
      <g id="Graphic_21">
        <path d="M 249.49 461.5 L 255.99 457.68 L 262.49 461.5 L 255.99 465.32 Z" fill="black"/>
        <path d="M 249.49 461.5 L 255.99 457.68 L 262.49 461.5 L 255.99 465.32 Z" stroke="black" stroke-linecap="butt" stroke-linejoin="round" stroke-width="1"/>
      </g>
      <g id="Graphic_20">
        <rect x="306" y="431.5" width="120" height="60" fill="#dae8fc"/>
        <rect x="306" y="431.5" width="120" height="60" stroke="#6c8ebf" stroke-linecap="butt" stroke-linejoin="round" stroke-width="1"/>
      </g>
      <g id="Group_18">
        <g id="Graphic_19">
          <title>Text</title>
          <text transform="translate(323.3164 450.6797)" fill="black">
            <tspan font-family="Helvetica" font-size="16" fill="black" x="0" y="15" xml:space="preserve">Architecture</tspan>
          </text>
        </g>
      </g>
      <g id="Graphic_16">
        <path d="M 603 60.49 L 606.82 66.99 L 603 73.49 L 599.18 66.99 Z" fill="black"/>
        <path d="M 603 60.49 L 606.82 66.99 L 603 73.49 L 599.18 66.99 Z" stroke="black" stroke-linecap="butt" stroke-linejoin="round" stroke-width="1"/>
      </g>
      <g id="Group_14">
        <g id="Graphic_15">
          <title>Text</title>
          <text transform="translate(518.9278 82.43116)" fill="black">
            <tspan font-family="Helvetica" font-size="16" fill="black" x="0" y="15" xml:space="preserve">consists of</tspan>
          </text>
        </g>
      </g>
      <g id="Graphic_8">
        <rect x="41.5" y="431.5" width="207" height="60" fill="#dae8fc"/>
        <rect x="41.5" y="431.5" width="207" height="60" stroke="#6c8ebf" stroke-linecap="butt" stroke-linejoin="round" stroke-width="1"/>
      </g>
      <g id="Group_6">
        <g id="Graphic_7">
          <title>Text</title>
          <text transform="translate(86.31641 450.6797)" fill="black">
            <tspan font-family="Helvetica" font-size="16" fill="black" x="0" y="15" xml:space="preserve">LSV ODD Demo</tspan>
          </text>
        </g>
      </g>
    </g>
  </g>
</svg>
